<svg width="29" height="29" viewBox="0 0 29 29" fill="none" xmlns="http://www.w3.org/2000/svg">
<circle cx="14.5" cy="14.5" r="14" fill="#1AA873" stroke="#FDFDFD"/>
<path d="M8.875 16.7598V14.8652H6.99023V14.0742H8.875V12.1895H9.66602V14.0742H11.5605V14.8652H9.66602V16.7598H8.875ZM15.5742 10.9297V18H14.6855V11.8477H14.6465L12.9277 12.9902V12.1016L14.6855 10.9297H15.5742ZM19.8223 18.0977C18.3379 18.0977 17.3027 17.2773 17.3125 16.125C17.3027 15.207 17.9375 14.4551 18.748 14.3281V14.2891C18.0449 14.123 17.5859 13.4785 17.5859 12.707C17.5859 11.623 18.5332 10.832 19.8223 10.832C21.1113 10.832 22.0586 11.623 22.0684 12.707C22.0586 13.4785 21.5898 14.123 20.8965 14.2891V14.3281C21.6973 14.4551 22.332 15.207 22.3418 16.125C22.332 17.2773 21.2969 18.0977 19.8223 18.0977ZM19.8223 17.3262C20.8379 17.3262 21.4629 16.8184 21.4629 16.0762C21.4629 15.2949 20.7695 14.7188 19.8223 14.7188C18.875 14.7188 18.1719 15.2949 18.1914 16.0762C18.1719 16.8184 18.8066 17.3262 19.8223 17.3262ZM19.8223 13.9766C20.623 13.9766 21.209 13.4883 21.209 12.7754C21.209 12.0723 20.6523 11.5938 19.8223 11.5938C18.9824 11.5938 18.4355 12.0723 18.4355 12.7754C18.4355 13.4883 19.0117 13.9766 19.8223 13.9766Z" fill="#FDFDFD"/>
</svg>
