<svg width="32" height="32" viewBox="0 0 32 32" fill="none" xmlns="http://www.w3.org/2000/svg">
<path d="M8.88892 13.1111C8.88892 9.18375 12.0727 6 16 6C19.9274 6 23.1111 9.18375 23.1111 13.1111V19.5714H8.88892V13.1111Z" fill="#DEDEDE"/>
<path d="M8 20.4762C8 19.9765 8.40508 19.5714 8.90476 19.5714H23.0952C23.5949 19.5714 24 19.9765 24 20.4762C24 20.9759 23.5949 21.3809 23.0952 21.3809H8.90476C8.40508 21.3809 8 20.9759 8 20.4762Z" fill="#DEDEDE"/>
<path d="M14.2222 22.2856H17.7777V23.2222C17.7777 24.204 16.9818 24.9999 15.9999 24.9999C15.0181 24.9999 14.2222 24.204 14.2222 23.2222V22.2856Z" fill="#DEDEDE"/>
<circle cx="23.5" cy="5.5" r="1.5" fill="#FE2D2D"/>
</svg>
