<svg width="32" height="32" viewBox="0 0 32 32" fill="none" xmlns="http://www.w3.org/2000/svg">
<rect x="13.5293" y="19.7778" width="4.94118" height="6.22222" fill="#1AA873"/>
<path d="M14.795 5.90985C15.5082 5.3714 16.492 5.3714 17.2052 5.90984L20.5085 8.40384C22.0398 9.56 21.2222 12 19.3034 12H12.6968C10.778 12 9.9603 9.56 11.4917 8.40384L14.795 5.90985Z" fill="#1AA873"/>
<path d="M14.7863 9.8151C15.5029 9.26807 16.4969 9.26807 17.2135 9.8151L21.9955 13.4656C23.5164 14.6266 22.6953 17.0553 20.7819 17.0553H11.2179C9.30449 17.0553 8.48343 14.6266 10.0043 13.4656L14.7863 9.8151Z" fill="#1AA873"/>
<path d="M14.78 14.4948C15.4991 13.9412 16.5009 13.9412 17.22 14.4948L23.4675 19.3042C24.9805 20.4689 24.1569 22.889 22.2476 22.889H9.75244C7.8431 22.889 7.01948 20.4689 8.53245 19.3042L14.78 14.4948Z" fill="#1AA873"/>
</svg>
