<svg width="32" height="32" viewBox="0 0 32 32" fill="none" xmlns="http://www.w3.org/2000/svg">
<path fill-rule="evenodd" clip-rule="evenodd" d="M14.2567 5.64888C14.403 5.25857 14.7762 5 15.193 5H16.807C17.2238 5 17.597 5.25857 17.7433 5.64888L18.368 7.31478C19.0726 7.50644 19.7429 7.78155 20.3674 8.12884L22.0865 7.34743C22.466 7.17493 22.9127 7.25593 23.2074 7.55069L24.3487 8.69196C24.6434 8.98671 24.7244 9.43338 24.552 9.81286L23.7899 11.4895C24.1757 12.1544 24.4788 12.8732 24.6852 13.632L26.3511 14.2567C26.7414 14.403 27 14.7762 27 15.193V16.807C27 17.2238 26.7414 17.597 26.3511 17.7433L24.6852 18.368C24.488 19.093 24.2025 19.7816 23.8409 20.4215L24.552 21.9859C24.7245 22.3654 24.6435 22.8121 24.3487 23.1068L23.2075 24.2481C22.9127 24.5429 22.466 24.6239 22.0865 24.4514L20.5633 23.759C19.8837 24.1595 19.1469 24.4734 18.368 24.6852L17.7433 26.3511C17.597 26.7414 17.2238 27 16.807 27H15.193C14.7762 27 14.403 26.7414 14.2567 26.3511L13.632 24.6852C12.8531 24.4734 12.1163 24.1596 11.4367 23.759L9.91349 24.4514C9.534 24.6239 9.08733 24.5429 8.79258 24.2481L7.65131 23.1069C7.35655 22.8121 7.27556 22.3654 7.44805 21.986L8.15916 20.4215C7.79754 19.7816 7.51199 19.093 7.31478 18.368L5.64888 17.7433C5.25857 17.597 5 17.2238 5 16.807V15.193C5 14.7762 5.25857 14.403 5.64888 14.2567L7.31478 13.632C7.52116 12.8733 7.82429 12.1544 8.21011 11.4895L7.44801 9.8129C7.27552 9.43342 7.35652 8.98674 7.65127 8.69199L8.79254 7.55072C9.08729 7.25597 9.53397 7.17497 9.91345 7.34746L11.6325 8.12886C12.2571 7.78156 12.9273 7.50645 13.632 7.31478L14.2567 5.64888ZM16 20C18.2091 20 20 18.2091 20 16C20 13.7909 18.2091 12 16 12C13.7909 12 12 13.7909 12 16C12 18.2091 13.7909 20 16 20Z" fill="#DEDEDE"/>
</svg>
